# This file uses centimeters as units for non-parametric coordinates.

v 7.270594 0.000000 20.013180
v 10.088564 0.000000 20.013180
v 7.270594 1.509917 20.013180
v 10.088564 1.509917 20.013180
v 7.270594 1.509917 11.213085
v 10.088564 1.509917 11.213085
v 7.270594 0.000000 11.213085
v 10.088564 0.000000 11.213085
v 8.679579 0.000000 20.013180
v 8.679579 0.000000 11.213085
v 8.679579 1.830121 11.213085
v 8.679579 1.830121 20.013180
v 4.452622 0.000000 20.013180
v 4.452622 1.509917 20.013180
v 4.452622 1.509917 11.213085
v 4.452622 0.000000 11.213085
v 5.861608 0.000000 20.013180
v 5.861608 0.000000 11.213085
v 5.861608 1.830121 11.213085
v 5.861608 1.830121 20.013180
vt 0.779558 0.433971
vt 0.908356 0.434795
vt 0.900373 0.542611
vt 0.784068 0.540620
vt 0.128705 0.434436
vt 0.124305 0.541649
vt 0.000000 0.435036
vt 0.124627 0.654374
vt 0.123748 0.327199
vt 0.006962 0.327177
vt 0.784485 0.327328
vt 0.901326 0.327351
vt 0.779600 0.220683
vt 0.908398 0.219909
vt 0.128746 0.219965
vt 0.000042 0.219315
vt 0.007871 0.111309
vt 0.784233 0.001311
vt 0.784151 0.114035
vt 0.124388 0.112750
vt 0.124759 0.000000
vt 0.900457 0.112090
vt 0.007788 0.543045
vt 0.784102 0.653369
vn 0.000000 0.000000 1.000000
vn 0.000000 0.000000 1.000000
vn 0.000000 0.000000 1.000000
vn 0.000000 0.000000 1.000000
vn 0.221608 0.975136 0.000000
vn 0.221608 0.975136 0.000000
vn 0.221608 0.975136 0.000000
vn 0.221608 0.975136 0.000000
vn 0.000000 0.000000 -1.000000
vn 0.000000 0.000000 -1.000000
vn 0.000000 0.000000 -1.000000
vn 0.000000 0.000000 -1.000000
vn 1.000000 0.000000 0.000000
vn 1.000000 0.000000 0.000000
vn 1.000000 0.000000 0.000000
vn 1.000000 0.000000 0.000000
vn 0.000000 0.000000 -1.000000
vn 0.000000 0.000000 -1.000000
vn 0.000000 0.000000 -1.000000
vn 0.000000 0.000000 -1.000000
vn -0.221608 0.975136 0.000000
vn -0.221608 0.975136 0.000000
vn -0.221608 0.975136 0.000000
vn -0.221608 0.975136 0.000000
vn 0.000000 0.000000 1.000000
vn 0.000000 0.000000 1.000000
vn 0.000000 0.000000 1.000000
vn 0.000000 0.000000 1.000000
vn 0.000000 0.000000 1.000000
vn 0.000000 0.000000 1.000000
vn 0.000000 0.000000 1.000000
vn 0.000000 0.000000 1.000000
vn 0.221608 0.975136 0.000000
vn 0.221608 0.975136 0.000000
vn 0.221608 0.975136 0.000000
vn 0.221608 0.975136 0.000000
vn 0.000000 0.000000 -1.000000
vn 0.000000 0.000000 -1.000000
vn 0.000000 0.000000 -1.000000
vn 0.000000 0.000000 -1.000000
vn -1.000000 0.000000 0.000000
vn -1.000000 0.000000 0.000000
vn -1.000000 0.000000 0.000000
vn -1.000000 0.000000 0.000000
vn 0.000000 0.000000 -1.000000
vn 0.000000 0.000000 -1.000000
vn 0.000000 0.000000 -1.000000
vn 0.000000 0.000000 -1.000000
vn -0.221608 0.975136 0.000000
vn -0.221608 0.975136 0.000000
vn -0.221608 0.975136 0.000000
vn -0.221608 0.975136 0.000000
vn 0.000000 0.000000 1.000000
vn 0.000000 0.000000 1.000000
vn 0.000000 0.000000 1.000000
vn 0.000000 0.000000 1.000000
s off
g initialShadingGroup A_Industrial_Warehouse2_Mesh_Industrial_Warehouse2
f 12/1/1 9/2/2 2/3/3 4/4/4
f 11/5/5 12/1/6 4/4/7 6/6/8
f 10/7/9 11/5/10 6/6/11 8/23/12
f 2/24/13 8/8/14 6/6/15 4/4/16
f 5/9/17 11/5/18 10/7/19 7/10/20
f 3/11/21 12/1/22 11/5/23 5/9/24
f 1/12/25 9/2/26 12/1/27 3/11/28
f 20/13/29 17/14/30 1/12/31 3/11/32
f 19/15/33 20/13/34 3/11/35 5/9/36
f 18/16/37 19/15/38 5/9/39 7/10/40
f 16/21/41 13/18/42 14/19/43 15/20/44
f 15/20/45 19/15/46 18/16/47 16/17/48
f 14/19/49 20/13/50 19/15/51 15/20/52
f 13/22/53 17/14/54 20/13/55 14/19/56
