# This file uses centimeters as units for non-parametric coordinates.

v 19.830397 2.559009 16.213970
v 20.663729 2.559009 16.213970
v 19.830397 2.559009 15.380637
v 20.663729 2.559009 15.380637
v 19.684563 2.704842 15.797304
v 20.809563 2.142342 15.234804
v 19.684563 2.142342 15.234804
v 20.809563 2.142342 16.359804
v 20.247063 2.704842 16.359804
v 19.684563 2.142342 16.359804
v 20.809563 2.704842 15.797304
v 20.247063 2.704842 15.234804
v 20.247063 2.142342 16.547304
v 20.247063 2.892342 15.797304
v 20.247063 2.142342 15.047304
v 20.997063 2.142342 15.797304
v 19.497063 2.142342 15.797304
v 20.247063 0.379662 16.547304
v 19.684563 0.379662 16.359804
v 20.809563 0.379662 16.359804
v 20.247063 0.379662 15.047304
v 19.684563 0.379662 15.234804
v 20.809563 0.379662 15.234804
v 20.997063 0.379662 15.797304
v 19.497063 0.379662 15.797304
v 20.247063 0.233064 16.415035
v 19.783766 0.233064 16.260601
v 20.710360 0.233064 16.260601
v 20.247063 0.233064 15.179574
v 19.783766 0.233064 15.334006
v 20.710360 0.233064 15.334006
v 20.864794 0.233064 15.797304
v 19.629332 0.233064 15.797304
v 19.441784 0.000000 16.602583
v 21.052341 0.000000 16.602583
v 19.441784 0.372041 16.602583
v 21.052341 0.372041 16.602583
v 19.441784 0.372041 14.992025
v 21.052341 0.372041 14.992025
v 19.441784 0.000000 14.992025
v 21.052341 0.000000 14.992025
v 19.441784 0.582868 16.602583
v 21.052341 0.582868 16.602583
v 21.052341 0.582868 14.992025
v 19.441784 0.582868 14.992025
vt 0.343750 0.281250
vt 0.656250 0.281250
vt 0.375000 0.500000
vt 0.125000 0.250000
vt 0.625000 0.500000
vt 0.875000 0.250000
vt 0.500000 0.125000
vt 0.500000 0.375000
vt 0.500000 0.625000
vt 0.750000 0.125000
vt 0.250000 0.125000
vt 0.625000 0.125000
vt 0.500000 0.250000
vt 0.375000 0.125000
vt 0.625000 0.375000
vt 0.750000 0.250000
vt 0.500000 0.500000
vt 0.375000 0.375000
vt 0.250000 0.250000
vt 0.625000 0.625000
vt 0.875000 0.125000
vt 0.375000 0.625000
vt 0.125000 0.125000
vt 0.000000 0.000000
vt 1.000000 0.000000
vt 1.000000 1.000000
vt 0.000000 1.000000
vt 0.000000 0.000000
vt 1.000000 0.000000
vt 1.000000 1.000000
vt 0.000000 1.000000
vt 0.000000 0.000000
vt 1.000000 0.000000
vt 1.000000 1.000000
vt 0.000000 1.000000
vt 0.000000 0.000000
vt 1.000000 0.000000
vt 1.000000 1.000000
vt 0.000000 1.000000
vt 0.000000 0.000000
vt 1.000000 0.000000
vt 1.000000 1.000000
vt 0.000000 1.000000
vt 0.000000 0.000000
vt 1.000000 0.000000
vt 1.000000 1.000000
vt 0.000000 1.000000
vt 0.000000 0.000000
vt 1.000000 0.000000
vt 1.000000 1.000000
vt 0.000000 1.000000
vt 0.000000 0.000000
vt 1.000000 0.000000
vt 1.000000 1.000000
vt 0.000000 1.000000
vt 0.000000 0.000000
vt 1.000000 0.000000
vt 1.000000 1.000000
vt 0.000000 1.000000
vt 0.000000 0.000000
vt 1.000000 0.000000
vt 1.000000 1.000000
vt 0.000000 1.000000
vt 0.000000 0.000000
vt 1.000000 0.000000
vt 1.000000 1.000000
vt 0.000000 1.000000
vt 0.000000 0.000000
vt 1.000000 0.000000
vt 1.000000 1.000000
vt 0.000000 1.000000
vt 0.000000 0.000000
vt 1.000000 0.000000
vt 1.000000 1.000000
vt 0.000000 1.000000
vt 0.000000 0.000000
vt 1.000000 0.000000
vt 1.000000 1.000000
vt 0.000000 1.000000
vt 0.000000 0.000000
vt 1.000000 0.000000
vt 1.000000 1.000000
vt 0.000000 1.000000
vt 0.000000 0.000000
vt 1.000000 0.000000
vt 1.000000 1.000000
vt 0.000000 1.000000
vt 0.375000 0.000000
vt 0.625000 0.000000
vt 0.625000 0.250000
vt 0.375000 0.250000
vt 0.375000 0.250000
vt 0.625000 0.250000
vt 0.625000 0.500000
vt 0.375000 0.500000
vt 0.375000 0.500000
vt 0.625000 0.500000
vt 0.625000 0.750000
vt 0.375000 0.750000
vt 0.875000 0.000000
vt 0.875000 0.250000
vt 0.125000 0.000000
vt 0.125000 0.250000
vn -0.000000 0.072293 0.997384
vn 0.705284 0.071765 0.705284
vn 0.577350 0.577351 0.577350
vn -0.000001 0.707107 0.707107
vn -0.705284 0.071765 0.705284
vn -0.577351 0.577350 0.577350
vn 0.000000 1.000000 0.000000
vn -0.707108 0.707106 0.000000
vn 0.707108 0.707106 -0.000000
vn 0.577351 0.577349 -0.577351
vn 0.000001 0.707106 -0.707108
vn -0.577350 0.577351 -0.577350
vn 0.000000 0.072293 -0.997384
vn -0.705284 0.071765 -0.705284
vn 0.705284 0.071765 -0.705283
vn 0.997383 0.072294 0.000000
vn -0.997384 0.072293 0.000000
vn -0.706050 -0.054647 0.706050
vn 0.000000 -0.055403 0.998464
vn 0.706050 -0.054648 0.706050
vn 0.000000 -0.055403 -0.998464
vn -0.706050 -0.054647 -0.706050
vn 0.706050 -0.054648 -0.706050
vn 0.998464 -0.055404 0.000000
vn -0.998464 -0.055403 -0.000000
vn -0.510866 -0.691399 0.510866
vn 0.000000 -0.669891 0.742460
vn 0.510863 -0.691403 0.510863
vn 0.000000 -0.669890 -0.742460
vn -0.510866 -0.691398 -0.510867
vn 0.510863 -0.691401 -0.510866
vn 0.742454 -0.669897 0.000000
vn -0.742461 -0.669889 -0.000000
vn 0.000000 0.000000 1.000000
vn 0.000000 0.000000 1.000000
vn 0.000000 0.000000 1.000000
vn 0.000000 0.000000 1.000000
vn 0.000000 1.000000 0.000000
vn 0.000000 1.000000 0.000000
vn 0.000000 1.000000 0.000000
vn 0.000000 1.000000 0.000000
vn 0.000000 0.000000 -1.000000
vn 0.000000 0.000000 -1.000000
vn 0.000000 0.000000 -1.000000
vn 0.000000 0.000000 -1.000000
vn 1.000000 0.000000 0.000000
vn 1.000000 0.000000 0.000000
vn 1.000000 0.000000 0.000000
vn 1.000000 0.000000 0.000000
vn -1.000000 0.000000 0.000000
vn -1.000000 0.000000 0.000000
vn -1.000000 0.000000 0.000000
vn -1.000000 0.000000 0.000000
s 1
g Industrial_Silo
f 13/7/1 8/12/2 2/2/3 9/13/4
f 10/14/5 13/7/1 9/13/4 1/1/6
f 1/1/6 9/13/4 14/8/7 5/18/8
f 9/13/4 2/2/3 11/15/9 14/8/7
f 14/8/7 11/15/9 4/5/10 12/17/11
f 5/18/8 14/8/7 12/17/11 3/3/12
f 3/3/12 12/17/11 15/9/13 7/22/14
f 12/17/11 4/5/10 6/20/15 15/9/13
f 16/10/16 6/21/15 4/6/10 11/16/9
f 8/12/2 16/10/16 11/16/9 2/2/3
f 17/11/17 10/14/5 1/1/6 5/19/8
f 7/23/14 17/11/17 5/19/8 3/4/12
f 13/24/1 10/25/5 19/26/18 18/27/19
f 8/28/2 13/29/1 18/30/19 20/31/20
f 7/32/14 15/33/13 21/34/21 22/35/22
f 15/36/13 6/37/15 23/38/23 21/39/21
f 16/40/16 8/41/2 20/42/20 24/43/24
f 6/44/15 16/45/16 24/46/24 23/47/23
f 17/48/17 7/49/14 22/50/22 25/51/25
f 10/52/5 17/53/17 25/54/25 19/55/18
f 18/56/19 19/57/18 27/58/26 26/59/27
f 20/60/20 18/61/19 26/62/27 28/63/28
f 22/64/22 21/65/21 29/66/29 30/67/30
f 21/68/21 23/69/23 31/70/31 29/71/29
f 24/72/24 20/73/20 28/74/28 32/75/32
f 23/76/23 24/77/24 32/78/32 31/79/31
f 25/80/25 22/81/22 30/82/30 33/83/33
f 19/84/18 25/85/25 33/86/33 27/87/26
s off
f 34/88/34 35/89/35 43/90/36 42/91/37
f 36/92/38 37/93/39 39/94/40 38/95/41
f 45/96/42 44/97/43 41/98/44 40/99/45
f 35/89/46 41/100/47 44/101/48 43/90/49
f 40/102/50 34/88/51 42/91/52 45/103/53
