# This file uses centimeters as units for non-parametric coordinates.

v 15.311426 0.000000 15.415443
v 16.197836 0.000000 15.415443
v 15.311426 1.068431 15.415443
v 16.197836 1.655169 15.415443
v 15.311426 1.068431 11.397743
v 16.197836 1.655169 11.397743
v 15.311426 0.000000 11.397743
v 16.197836 0.000000 11.397743
v 16.197836 1.068431 11.397743
v 16.197836 1.068431 15.415443
v 14.425018 0.000000 15.415443
v 14.425018 1.068431 15.415443
v 15.311426 1.655169 15.415443
v 14.425018 1.068431 11.397743
v 15.311426 1.655169 11.397743
v 14.425018 0.000000 11.397743
v 13.538610 0.000000 15.415443
v 13.538610 1.068431 15.415443
v 14.425017 1.655169 15.415443
v 13.538610 1.068431 11.397743
v 14.425017 1.655169 11.397743
v 13.538610 0.000000 11.397743
v 17.084246 0.000000 15.415443
v 17.970655 0.000000 15.415443
v 17.084246 1.068431 15.415443
v 17.970655 1.655169 15.415443
v 17.084246 1.068431 11.397743
v 17.970655 1.655169 11.397743
v 17.084246 0.000000 11.397743
v 17.970655 0.000000 11.397743
v 17.970655 1.068431 11.397743
v 17.970655 1.068431 15.415443
v 18.857065 0.000000 15.415443
v 18.857065 1.655169 15.415443
v 18.857065 1.655169 11.397743
v 18.857065 0.000000 11.397743
v 18.857065 1.068432 11.397743
v 18.857065 1.068432 15.415443
v 17.084246 1.655169 15.415443
v 17.084246 1.655169 11.397743
vt 0.259111 0.659044
vt 0.325163 0.659044
vt 0.043722 0.664160
vt 0.043722 0.664160
vt 0.122933 0.664154
vt 0.000021 0.963549
vt 0.098824 1.000000
vt 0.043742 0.963545
vt 0.325163 0.738660
vt 0.259111 0.738660
vt 0.193059 0.659044
vt 0.043722 0.664160
vt 0.122933 0.664154
vt 0.000020 0.963549
vt 0.970297 0.372302
vt 0.193059 0.738660
vt 0.426392 0.743329
vt 0.915195 0.036462
vt 0.994407 0.036457
vt 0.000020 0.963549
vt 0.127007 0.659044
vt 0.127007 0.738660
vt 0.391216 0.659044
vt 0.457268 0.659044
vt 0.043722 0.664160
vt 0.043722 0.664160
vt 0.122933 0.664154
vt 0.000021 0.963549
vt 0.098824 1.000000
vt 0.043742 0.963545
vt 0.457268 0.738660
vt 0.391215 0.738660
vt 0.523320 0.659044
vt 0.973858 0.376960
vt 0.122933 0.664154
vt 0.930157 0.676348
vt 0.973879 0.676345
vt 0.127007 0.822945
vt 0.122934 0.664154
vt 0.000020 0.963548
vt 0.325163 0.659044
vt 0.391216 0.659044
vt 0.391216 0.738660
vt 0.325163 0.738660
vt 0.426392 0.743329
vt 0.523320 0.659044
vt 0.457268 0.659044
vt 0.457268 0.738660
vt 0.915215 0.335848
vt 0.193059 0.659044
vt 0.127007 0.738660
vt 0.193059 0.738660
vt 0.259111 0.659044
vt 0.259111 0.738660
vt 0.098798 0.627698
vt 0.098798 0.627698
vt 0.098798 0.627698
vt 0.970271 0.000000
vt 0.098798 0.627698
vt 0.098798 0.627698
vt 0.043742 0.963546
vt 0.098824 1.000000
vt 0.098824 1.000000
vt 0.043742 0.963546
vt 0.043742 0.963546
vt 0.098824 1.000000
vt 0.127007 0.743329
vt 0.523320 0.738660
vt 0.426392 0.822945
vt 0.523320 0.738660
vt 0.127007 0.743329
vt 0.127007 0.822945
vt 0.426392 0.822945
vt 0.127007 0.659044
vt -0.000000 0.664163
vt 0.122954 0.963540
vt 0.930137 0.376963
vt 0.122954 0.963540
vt 0.000000 0.664163
vt 0.122954 0.963540
vt -0.000000 0.664163
vt 0.994427 0.335842
vt -0.000000 0.664163
vt 0.122954 0.963540
vt 0.000000 0.664163
vt 0.122954 0.963540
vn 0.000000 0.000000 1.000000
vn 0.000000 0.000000 1.000000
vn 0.000000 0.000000 1.000000
vn 0.000000 0.000000 1.000000
vn -0.551960 0.833870 0.000000
vn -0.551960 0.833870 0.000000
vn -0.551960 0.833870 0.000000
vn -0.551960 0.833870 0.000000
vn 0.000000 0.000000 -1.000000
vn 0.000000 0.000000 -1.000000
vn 0.000000 0.000000 -1.000000
vn 0.000000 0.000000 -1.000000
vn 0.000000 0.000000 -1.000000
vn 0.000000 0.000000 -1.000000
vn 0.000000 0.000000 -1.000000
vn 1.000000 0.000000 0.000000
vn 1.000000 0.000000 0.000000
vn 1.000000 0.000000 0.000000
vn 1.000000 0.000000 0.000000
vn 0.000000 0.000000 1.000000
vn 0.000000 0.000000 1.000000
vn 0.000000 0.000000 1.000000
vn 0.000001 0.000000 1.000000
vn 0.000000 0.000000 1.000000
vn 0.000000 0.000000 1.000000
vn 0.000001 0.000000 1.000000
vn -0.551961 0.833870 0.000000
vn -0.551961 0.833870 0.000000
vn -0.551961 0.833870 0.000000
vn -0.551961 0.833870 0.000000
vn -0.000001 0.000000 -1.000000
vn 0.000000 0.000000 -1.000000
vn 0.000000 0.000000 -1.000000
vn -0.000001 0.000000 -1.000000
vn -0.000001 0.000000 -1.000000
vn 0.000000 0.000000 -1.000000
vn 0.000000 0.000000 -1.000000
vn 1.000000 0.000000 0.000000
vn 1.000000 0.000000 0.000000
vn 1.000000 0.000000 0.000000
vn 1.000000 0.000000 0.000000
vn 0.000001 0.000000 1.000000
vn 0.000000 0.000000 1.000000
vn 0.000000 0.000000 1.000000
vn 0.000002 0.000000 1.000000
vn 0.000001 0.000000 1.000000
vn 0.000001 0.000000 1.000000
vn 0.000002 0.000000 1.000000
vn -0.551962 0.833870 0.000000
vn -0.551962 0.833870 0.000000
vn -0.551962 0.833870 0.000000
vn -0.551962 0.833870 0.000000
vn -0.000001 0.000000 -1.000000
vn -0.000001 0.000000 -1.000000
vn -0.000001 0.000000 -1.000000
vn -0.000001 0.000000 -1.000000
vn -0.000001 0.000000 -1.000000
vn -0.000002 0.000000 -1.000000
vn -0.000001 0.000000 -1.000000
vn 1.000000 0.000002 0.000000
vn 1.000000 0.000002 0.000000
vn 1.000000 0.000002 0.000000
vn 1.000000 0.000002 0.000000
vn 0.000002 0.000000 1.000000
vn 0.000001 0.000000 1.000000
vn 0.000000 0.000000 1.000000
vn 0.000000 0.000000 1.000000
vn 0.000001 0.000000 1.000000
vn 0.000001 0.000000 1.000000
vn 0.000000 0.000000 1.000000
vn -0.551960 0.833871 0.000000
vn -0.551960 0.833871 0.000000
vn -0.551960 0.833871 0.000000
vn -0.551960 0.833871 0.000000
vn 0.000000 0.000000 -1.000000
vn 0.000000 0.000000 -1.000000
vn 0.000001 0.000000 -1.000000
vn 0.000000 0.000000 -1.000000
vn 0.000000 0.000000 -1.000000
vn 0.000000 0.000000 -1.000000
vn 0.000000 0.000000 -1.000000
vn 1.000000 0.000000 0.000000
vn 1.000000 0.000000 0.000000
vn 1.000000 0.000000 0.000000
vn 1.000000 0.000000 0.000000
vn 0.000000 0.000000 1.000000
vn 0.000001 0.000000 1.000000
vn 0.000000 0.000000 1.000000
vn 0.000001 0.000000 1.000000
vn 0.000002 0.000000 1.000000
vn 0.000002 0.000000 1.000000
vn 0.000001 0.000000 1.000000
vn -0.551961 0.833870 0.000000
vn -0.551961 0.833870 0.000000
vn -0.551961 0.833870 0.000000
vn -0.551961 0.833870 0.000000
vn 0.000000 0.000000 -1.000000
vn 0.000001 0.000000 -1.000000
vn 0.000001 0.000000 -1.000000
vn 0.000001 0.000000 -1.000000
vn 0.000000 0.000000 -1.000000
vn 0.000000 0.000000 -1.000000
vn 0.000001 0.000000 -1.000000
vn 1.000000 0.000000 0.000000
vn 1.000000 0.000000 0.000000
vn 1.000000 0.000000 0.000000
vn 1.000000 0.000000 0.000000
vn 0.000001 0.000000 1.000000
vn 0.000002 0.000000 1.000000
vn 0.000000 0.000000 1.000000
vn 1.000000 0.000000 0.000000
vn 1.000000 0.000000 0.000000
vn 1.000000 0.000000 0.000000
vn 1.000000 0.000000 0.000000
vn 0.000000 0.000000 1.000000
vn 0.000000 0.000000 1.000000
vn 0.000000 0.000000 1.000000
vn 0.000000 0.000000 1.000000
vn -0.551961 0.833870 0.000000
vn -0.551961 0.833870 0.000000
vn -0.551961 0.833870 0.000000
vn -0.551961 0.833870 0.000000
vn 0.000000 0.000000 -1.000000
vn 0.000000 0.000000 -1.000000
vn 0.000000 0.000000 -1.000000
vn 0.000000 0.000000 -1.000000
vn 0.000000 0.000000 -1.000000
vn 0.000000 0.000000 -1.000000
vn 0.000000 0.000000 -1.000000
vn 1.000000 0.000000 0.000000
vn 1.000000 0.000000 0.000000
vn 1.000000 0.000000 0.000000
vn 1.000000 0.000000 0.000000
vn 0.000000 0.000000 1.000000
vn 0.000000 0.000000 1.000000
vn 0.000000 0.000000 1.000000
vn -1.000000 0.000000 0.000000
vn -1.000000 0.000000 0.000000
vn -1.000000 0.000000 0.000000
vn -1.000000 0.000000 0.000000
s off
g initialShadingGroup A_Industrial_Factory_Mesh_Industrial_Factory
f 1/1/1 2/2/2 10/44/3 3/54/4
f 3/4/5 4/5/6 6/86/7 5/65/8
f 5/53/9 9/41/10 8/9/11 7/10/12
f 5/65/13 6/86/14 9/66/15
f 10/3/16 9/8/17 6/6/18 4/85/19
f 3/4/20 10/60/21 4/5/22
f 11/11/23 1/1/24 3/54/25 12/52/26
f 12/12/27 13/13/28 15/84/29 14/64/30
f 14/50/31 5/53/32 7/10/33 16/16/34
f 14/64/35 15/84/36 5/7/37
f 3/4/38 5/65/39 15/14/40 13/83/41
f 12/12/42 3/59/43 13/13/44
f 17/74/45 11/11/46 12/52/47 18/51/48
f 18/18/49 19/19/50 21/82/51 20/49/52
f 20/21/53 14/50/54 16/16/55 22/22/56
f 20/49/57 21/82/58 14/15/59
f 12/12/60 14/64/61 21/20/62 19/81/63
f 18/18/64 12/58/65 19/19/66
f 23/23/67 24/24/68 32/48/69 25/43/70
f 25/26/71 26/27/72 28/80/73 27/61/74
f 27/42/75 31/47/76 30/31/77 29/32/78
f 27/61/79 28/80/80 31/63/81
f 32/25/82 31/30/83 28/28/84 26/79/85
f 25/26/86 32/57/87 26/27/88
f 24/24/89 33/33/90 38/70/91 32/48/92
f 32/25/93 34/35/94 35/78/95 31/30/96
f 31/47/97 37/46/98 36/68/99 30/31/100
f 31/30/101 35/78/102 37/62/103
f 38/34/104 37/37/105 35/36/106 34/77/107
f 32/25/108 38/56/109 34/35/110
f 37/67/111 38/45/112 33/69/113 36/38/114
f 2/2/115 23/23/116 25/43/117 10/44/118
f 10/3/119 39/39/120 40/76/121 9/8/122
f 9/41/123 27/42/124 29/32/125 8/9/126
f 9/8/127 40/76/128 27/29/129
f 25/26/130 27/61/131 40/40/132 39/75/133
f 10/3/134 25/55/135 39/39/136
f 18/73/137 20/72/138 22/71/139 17/17/140
