# This file uses centimeters as units for non-parametric coordinates.

v 19.159195 0.000000 16.429756
v 18.946608 0.000000 16.341698
v 18.734020 0.000000 16.429756
v 18.645962 0.000000 16.642342
v 18.734020 0.000000 16.854929
v 18.946608 0.000000 16.942987
v 19.159195 0.000000 16.854929
v 19.247252 0.000000 16.642342
v 19.054811 5.361667 16.534136
v 18.946608 5.361667 16.489315
v 18.838402 5.361667 16.534136
v 18.793579 5.361667 16.642342
v 18.838402 5.361667 16.750547
v 18.946608 5.361667 16.795368
v 19.054811 5.361667 16.750547
v 19.099634 5.361667 16.642342
v 19.017622 5.170533 16.571327
v 18.946608 5.170533 16.541910
v 18.946608 5.170533 16.642342
v 18.875591 5.170533 16.571327
v 18.846176 5.170533 16.642342
v 18.875591 5.170533 16.713356
v 18.946608 5.170533 16.742773
v 19.017622 5.170533 16.713356
v 19.047037 5.170533 16.642342
vt 0.788188 0.548122
vt 0.805311 0.547213
vt 0.822298 0.946537
vt 0.813583 0.947000
vt 0.822449 0.546665
vt 0.831021 0.946258
vt 0.839594 0.546478
vt 0.839748 0.946163
vt 0.856740 0.546652
vt 0.848475 0.946251
vt 0.873878 0.547187
vt 0.857198 0.946524
vt 0.891001 0.548083
vt 0.865913 0.946980
vt 0.908101 0.549339
vt 0.874618 0.947619
vt 0.925171 0.550955
vt 0.883306 0.948442
vt 0.846729 0.980833
vt 0.841598 0.981972
vt 0.842775 0.975228
vt 0.837160 0.979163
vt 0.836012 0.974053
vt 0.838825 0.969623
vt 0.843947 0.968473
vt 0.848379 0.971279
vt 0.849529 0.976393
vt 0.856596 0.988094
vt 0.843449 0.994070
vt 0.829908 0.989013
vt 0.823893 0.975833
vt 0.829028 0.962292
vt 0.842198 0.956352
vt 0.855698 0.961444
vt 0.861657 0.974579
vn 0.706840 0.027522 -0.706838
vn 0.000000 0.027522 -0.999621
vn 0.000000 0.027522 -0.999621
vn 0.706839 0.027522 -0.706838
vn 0.000000 0.027522 -0.999621
vn -0.706837 0.027521 -0.706841
vn -0.706836 0.027521 -0.706841
vn 0.000000 0.027522 -0.999621
vn -0.706837 0.027521 -0.706841
vn -0.999621 0.027522 0.000000
vn -0.999621 0.027522 0.000000
vn -0.706836 0.027521 -0.706841
vn -0.999621 0.027522 0.000000
vn -0.706839 0.027522 0.706839
vn -0.706839 0.027522 0.706839
vn -0.999621 0.027522 0.000000
vn -0.706839 0.027522 0.706839
vn 0.000000 0.027522 0.999621
vn 0.000000 0.027522 0.999621
vn -0.706839 0.027522 0.706839
vn 0.000000 0.027522 0.999621
vn 0.706842 0.027522 0.706836
vn 0.706842 0.027522 0.706836
vn 0.000000 0.027522 0.999621
vn 0.706842 0.027522 0.706836
vn 0.999621 0.027522 0.000000
vn 0.999621 0.027522 0.000000
vn 0.706842 0.027522 0.706836
vn 0.999621 0.027522 0.000000
vn 0.706840 0.027522 -0.706838
vn 0.706839 0.027522 -0.706838
vn 0.999621 0.027522 0.000000
vn 0.000000 1.000000 0.000000
vn 0.000000 1.000000 0.000000
vn 0.000000 1.000000 -0.000001
vn 0.000000 1.000000 0.000000
vn 0.000000 1.000000 0.000000
vn 0.000000 1.000000 -0.000001
vn 0.000000 1.000000 0.000000
vn 0.000000 1.000000 0.000000
vn 0.000000 1.000000 -0.000001
vn 0.000000 1.000000 0.000000
vn 0.000000 1.000000 0.000000
vn 0.000000 1.000000 -0.000001
vn 0.000000 1.000000 0.000000
vn 0.000000 1.000000 0.000000
vn 0.000000 1.000000 -0.000001
vn 0.000000 1.000000 0.000000
vn 0.000000 1.000000 -0.000004
vn 0.000000 1.000000 -0.000001
vn 0.000000 1.000000 -0.000004
vn 0.000000 1.000000 -0.000004
vn 0.000000 1.000000 -0.000001
vn 0.000000 1.000000 -0.000004
vn 0.000000 1.000000 0.000000
vn 0.000000 1.000000 -0.000001
vn -0.681764 0.265313 0.681768
vn 0.000000 0.265315 0.964162
vn 0.000000 0.265315 0.964162
vn -0.681766 0.265313 0.681765
vn 0.000000 0.265315 0.964162
vn 0.681758 0.265313 0.681773
vn 0.681761 0.265313 0.681771
vn 0.000000 0.265315 0.964162
vn 0.681758 0.265313 0.681773
vn 0.964163 0.265311 0.000000
vn 0.964163 0.265311 0.000000
vn 0.681761 0.265313 0.681771
vn 0.964163 0.265311 0.000000
vn 0.681762 0.265312 -0.681770
vn 0.681764 0.265312 -0.681768
vn 0.964163 0.265311 0.000000
vn 0.681762 0.265312 -0.681770
vn 0.000001 0.265317 -0.964161
vn 0.000000 0.265317 -0.964161
vn 0.681764 0.265312 -0.681768
vn 0.000001 0.265317 -0.964161
vn -0.681767 0.265314 -0.681764
vn -0.681770 0.265314 -0.681762
vn 0.000000 0.265317 -0.964161
vn -0.681767 0.265314 -0.681764
vn -0.964163 0.265311 0.000000
vn -0.964163 0.265311 0.000000
vn -0.681770 0.265314 -0.681762
vn -0.964163 0.265311 0.000000
vn -0.681764 0.265313 0.681768
vn -0.681766 0.265313 0.681765
vn -0.964163 0.265311 0.000000
s off
g initialShadingGroup A_Industrial_Chimney_Mesh_Industrial_Chimney
f 1/1/1 2/2/2 10/3/3 9/4/4
f 2/2/5 3/5/6 11/6/7 10/3/8
f 3/5/9 4/7/10 12/8/11 11/6/12
f 4/7/13 5/9/14 13/10/15 12/8/16
f 5/9/17 6/11/18 14/12/19 13/10/20
f 6/11/21 7/13/22 15/14/23 14/12/24
f 7/13/25 8/15/26 16/16/27 15/14/28
f 8/15/29 1/17/30 9/18/31 16/16/32
f 17/19/33 18/20/34 19/21/35
f 18/20/36 20/22/37 19/21/38
f 20/22/39 21/23/40 19/21/41
f 21/23/42 22/24/43 19/21/44
f 22/24/45 23/25/46 19/21/47
f 23/25/48 24/26/49 19/21/50
f 24/26/51 25/27/52 19/21/53
f 25/27/54 17/19/55 19/21/56
f 9/28/57 10/29/58 18/20/59 17/19/60
f 10/29/61 11/30/62 20/22/63 18/20/64
f 11/30/65 12/31/66 21/23/67 20/22/68
f 12/31/69 13/32/70 22/24/71 21/23/72
f 13/32/73 14/33/74 23/25/75 22/24/76
f 14/33/77 15/34/78 24/26/79 23/25/80
f 15/34/81 16/35/82 25/27/83 24/26/84
f 16/35/85 9/28/86 17/19/87 25/27/88
