# This file uses centimeters as units for non-parametric coordinates.

v 3.585354 -3.334757 9.454516
v 6.895374 -3.334757 5.192815
v 11.003046 -3.334757 0.931697
v 5.021538 -3.334757 7.110227
v 0.162704 -3.334757 10.425514
v 6.981792 -3.334757 -3.103928
v -6.718548 -3.334757 7.358938
v 5.236034 -3.334757 -6.856383
v -8.953846 -3.334757 3.014024
v 1.061432 -3.334757 -8.186707
v 9.483219 -3.334757 4.483124
v -0.763847 -3.334757 -8.619249
v -5.238953 -3.334757 -5.893934
v -11.602703 -3.334757 0.874795
v -7.485584 -3.334757 -3.376755
v -4.186497 -3.334757 -7.648252
v -3.005669 -3.334757 -8.434885
v 8.548220 -3.334757 -1.016657
v -5.021473 -3.334757 9.358052
v 4.533634 -3.334757 -8.180912
v -10.084362 -3.334757 -2.676861
v -0.052448 -3.334756 14.680832
v 6.239647 -3.334757 13.191218
v 8.328579 -3.334756 9.735439
v 11.410990 -3.334756 -4.106615
v 10.711500 -3.334757 -5.110689
v 8.877937 -3.334757 -8.953527
v 6.877720 -3.334757 -12.725374
v 1.893387 -3.334757 -12.305874
v 9.109951 -3.334757 8.935896
v 12.540760 -3.334757 8.013677
v 16.126102 -3.334756 -0.364309
v -4.615395 -3.334756 -12.516682
v -6.928955 -3.334757 -11.241002
v -7.213646 -3.334757 13.265545
v -10.382809 -3.334757 9.532345
v -12.192017 -3.334757 5.751124
v -16.725491 -3.334757 2.173245
v -0.443878 -3.334756 -12.859742
v -8.861702 -3.334757 -8.019344
v -9.660484 -3.334757 -7.139126
v -13.142502 -3.334757 -6.207971
vt 3.546741 0.991098
vt 3.031767 0.991098
vt 3.031767 0.008903
vt 3.546741 0.008903
vt 3.854305 0.991098
vt 3.854305 0.008903
vt -2.297257 0.991097
vt -2.497800 0.991097
vt -2.497800 0.008903
vt -2.297257 0.008903
vt -1.857501 0.991097
vt -1.857501 0.008903
vt -1.174443 0.991097
vt -1.617680 0.991097
vt -1.617680 0.008903
vt -1.174443 0.008903
vt 4.393367 0.991097
vt 4.058526 0.991097
vt 4.058526 0.008903
vt 4.393367 0.008903
vt -2.992441 0.991096
vt 4.992439 0.008903
vt -0.402572 0.991097
vt -0.617200 0.991097
vt -0.617200 0.008903
vt -0.402572 0.008903
vt 2.368932 0.991098
vt 2.368932 0.008903
vt 1.976651 0.991098
vt 1.976651 0.008903
vt 1.465667 0.991097
vt 1.465666 0.008903
vt 1.071555 0.991096
vt 1.071555 0.008903
vt -0.948679 0.991097
vt -0.948679 0.008903
vt 0.159556 0.991097
vt -0.100251 0.991097
vt -0.100251 0.008903
vt 0.159556 0.008903
vt 0.447284 0.991097
vt 0.447284 0.008903
vt 4.992441 0.991096
vt -2.992441 0.008903
vn -0.000000 1.000000 0.000000
vn -0.000000 1.000000 0.000000
vn -0.000000 1.000000 0.000000
vn -0.000000 1.000000 -0.000000
vn -0.000000 1.000000 -0.000000
vn -0.000000 1.000000 -0.000000
vn -0.000000 1.000000 -0.000000
vn -0.000000 1.000000 0.000000
vn -0.000000 1.000000 -0.000000
vn -0.000000 1.000000 -0.000000
vn -0.000000 1.000000 -0.000000
vn -0.000000 1.000000 -0.000000
vn 0.000000 1.000000 0.000000
vn 0.000000 1.000000 -0.000000
vn 0.000000 1.000000 0.000000
vn 0.000000 1.000000 0.000000
vn 0.000000 1.000000 0.000000
vn 0.000000 1.000000 -0.000000
vn 0.000000 1.000000 -0.000000
vn 0.000000 1.000000 0.000000
vn -0.000000 1.000000 0.000000
vn -0.000000 1.000000 0.000000
vn -0.000000 1.000000 0.000000
vn -0.000000 1.000000 0.000000
vn -0.000000 1.000000 0.000000
vn -0.000000 1.000000 0.000000
vn -0.000000 1.000000 0.000000
vn -0.000000 1.000000 0.000000
vn -0.000000 1.000000 0.000000
vn -0.000000 1.000000 -0.000000
vn -0.000000 1.000000 0.000000
vn -0.000000 1.000000 -0.000000
vn -0.000000 1.000000 -0.000000
vn -0.000000 1.000000 -0.000000
vn 0.000000 1.000000 0.000000
vn 0.000000 1.000000 0.000000
vn -0.000000 1.000000 -0.000000
vn -0.000000 1.000000 -0.000000
vn -0.000000 1.000000 -0.000000
vn -0.000000 1.000000 -0.000000
vn -0.000000 1.000000 -0.000000
vn -0.000000 1.000000 -0.000000
s 1
f 1/1/1 5/2/2 22/3/3 23/4/4
f 4/5/5 1/1/1 23/4/4 24/6/6
f 6/7/7 18/8/8 25/9/9 26/10/10
f 8/11/11 6/7/7 26/10/10 27/12/12
f 10/13/13 20/14/14 28/15/15 29/16/16
f 11/17/17 2/18/18 30/19/19 31/20/20
f 3/43/21 11/17/17 31/20/20 32/22/22
f 16/23/23 17/24/24 33/25/25 34/26/26
f 2/18/18 4/5/5 24/6/6 30/19/19
f 18/8/8 3/21/21 32/44/22 25/9/9
f 5/2/2 19/27/27 35/28/28 22/3/3
f 19/27/27 7/29/29 36/30/30 35/28/28
f 7/29/29 9/31/31 37/32/32 36/30/30
f 20/14/14 8/11/11 27/12/12 28/15/15
f 9/31/31 14/33/33 38/34/34 37/32/32
f 12/35/35 10/13/13 29/16/16 39/36/36
f 15/37/37 13/38/38 40/39/39 41/40/40
f 17/24/24 12/35/35 39/36/36 33/25/25
f 14/33/33 21/41/41 42/42/42 38/34/34
f 21/41/41 15/37/37 41/40/40 42/42/42
f 13/38/38 16/23/23 34/26/26 40/39/39
